Coordinates
version=1
nRows=7
nColumns=40
inDegrees=yes

Units are S.I. units (second, meters, Newtons, ...)
Angles are in degrees.

endheader
time	pelvis_tilt	pelvis_list	pelvis_rotation	pelvis_tx	pelvis_ty	pelvis_tz	hip_flexion_r	hip_adduction_r	hip_rotation_r	knee_angle_r	knee_angle_r_beta	ankle_angle_r	subtalar_angle_r	mtp_angle_r	hip_flexion_l	hip_adduction_l	hip_rotation_l	knee_angle_l	knee_angle_l_beta	ankle_angle_l	subtalar_angle_l	mtp_angle_l	lumbar_extension	lumbar_bending	lumbar_rotation	arm_flex_r	arm_add_r	arm_rot_r	elbow_flex_r	pro_sup_r	wrist_flex_r	wrist_dev_r	arm_flex_l	arm_add_l	arm_rot_l	elbow_flex_l	pro_sup_l	wrist_flex_l	wrist_dev_l
     13.81750000	      0.11100385	     -6.00758433	      4.40790804	      1.07618981	      0.93452603	      0.50582887	      6.68269404	      4.02777341	    -17.81598398	     14.82497062	     14.82497062	     11.22450018	      2.64970935	     -7.59799657	     33.43926690	    -12.96920292	      0.12912188	     50.04455281	     50.04455281	      9.84329728	    -18.64474361	     16.34646387	    -11.61656884	      8.55656376	      4.38263809	     21.30063003	    -13.87750786	     -6.26626282	     40.72622959	     46.19462733	      0.00000000	      0.00000000	     -1.74427022	     -7.37090489	      1.49073811	     41.58317646	     46.59120392	      0.00000000	      0.00000000
     13.82871429	      0.01302909	     -6.19408367	      4.46279039	      1.07508745	      0.93453765	      0.50612430	      5.69537718	      4.45238723	    -17.99208922	     13.72723791	     13.72723791	     11.07665329	      3.23293848	     -8.50555904	     33.56435715	    -12.93364787	      0.17928045	     46.09935912	     46.09935912	      8.73256250	    -18.44385734	     15.16934716	    -11.52353609	      8.75108786	      4.85539334	     22.71429647	    -14.44226305	     -5.11569856	     44.38630812	     45.97987455	      0.00000000	      0.00000000	     -1.47770770	     -6.80951183	      2.07713240	     35.63761443	     46.46288799	      0.00000000	      0.00000000
     13.83992857	     -0.11312423	     -6.25853938	      4.47626133	      1.07404707	      0.93435742	      0.50635358	      4.85284751	      4.73231724	    -17.87802448	     12.89839731	     12.89839731	     11.29924885	      3.48890170	     -8.59330689	     33.58140176	    -12.70745383	      0.28591625	     42.08639271	     42.08639271	      8.13162820	    -18.04494520	     15.45356856	    -11.45350790	      8.73048156	      4.62458520	     25.08186958	    -14.13469135	     -5.04924179	     46.47928269	     45.90738229	      0.00000000	      0.00000000	     -3.02242298	     -6.79341979	      2.30680338	     33.96636622	     46.39728856	      0.00000000	      0.00000000
     13.85114286	     -0.24917993	     -6.43341379	      4.48866479	      1.07313034	      0.93394103	      0.50654484	      3.94838626	      5.12434737	    -17.95216690	     11.91173007	     11.91173007	     11.24922904	      4.00874328	     -9.39738258	     33.44051383	    -12.63751885	      0.32056943	     37.83329377	     37.83329377	      6.63822994	    -17.44226097	     13.18996992	    -11.36395700	      8.86702563	      5.07102908	     26.37522010	    -14.67491236	     -4.09841969	     50.57708971	     45.70344981	      0.00000000	      0.00000000	     -3.28350677	     -6.46961345	      2.77169571	     29.78768460	     46.28441997	      0.00000000	      0.00000000
     13.86235714	     -0.40524095	     -6.50130834	      4.49012604	      1.07227747	      0.93341672	      0.50671029	      3.17959520	      5.38138938	    -17.82454730	     11.19658141	     11.19658141	     11.50414149	      4.24532209	     -9.45691702	     33.29630317	    -12.44049750	      0.36883527	     33.79485099	     33.79485099	      6.20429278	    -16.16109133	     13.46187095	    -11.22324950	      8.77434268	      4.79701856	     28.69552671	    -14.19488246	     -4.10665662	     52.60649713	     45.64064158	      0.00000000	      0.00000000	     -4.84893609	     -6.52084390	      2.93169400	     28.52398913	     46.22739246	      0.00000000	      0.00000000
     13.87357143	     -0.56471497	     -6.76756794	      4.52857321	      1.07160250	      0.93258454	      0.50671836	      2.29372946	      5.86223326	    -17.88314276	     10.21143708	     10.21143708	     11.53522098	      4.77506429	     -9.95330376	     33.13850482	    -12.47256139	      0.37511436	     29.83127511	     29.83127511	      5.17465171	    -14.50416588	     11.38169222	    -11.12855344	      9.06225918	      4.96765719	     30.12586109	    -14.46095430	     -3.46711932	     56.71277363	     45.47069821	      0.00000000	      0.00000000	     -5.67363882	     -6.40401874	      3.36177630	     25.95617024	     46.12210845	      0.00000000	      0.00000000
     13.88478571	     -0.75395894	     -6.84098540	      4.53153185	      1.07093559	      0.93168802	      0.50664077	      1.65607017	      6.06047437	    -17.78974903	      9.71389186	      9.71389186	     11.86115578	      4.95299472	    -10.05716895	     32.97122358	    -12.31958752	      0.22727320	     26.19363037	     26.19363037	      5.08126493	    -12.31991229	     11.55258113	    -10.95921856	      9.03287727	      4.77715731	     32.31879491	    -13.99710288	     -3.48312630	     58.70360222	     45.41215458	      0.00000000	      0.00000000	     -7.14059704	     -6.47665924	      3.49281002	     24.96708434	     46.07049910	      0.00000000	      0.00000000
